<svg xmlns="http://www.w3.org/2000/svg" xmlns:xlink="http://www.w3.org/1999/xlink" viewBox="0 0 1400.57 80.97"><defs><style>.cls-1{fill:url(#linear-gradient);}.cls-2{fill:url(#linear-gradient-2);}.cls-3{fill:url(#linear-gradient-3);}.cls-4{fill:url(#linear-gradient-4);}.cls-5{fill:url(#linear-gradient-5);}.cls-6{fill:url(#linear-gradient-6);}.cls-7{fill:url(#linear-gradient-7);}.cls-8{fill:url(#linear-gradient-8);}.cls-9{fill:url(#linear-gradient-9);}.cls-10{fill:url(#linear-gradient-10);}.cls-11{fill:url(#linear-gradient-11);}.cls-12{fill:url(#linear-gradient-12);}.cls-13{fill:url(#linear-gradient-13);}.cls-14{fill:url(#linear-gradient-14);}.cls-15{fill:url(#linear-gradient-15);}.cls-16{fill:url(#linear-gradient-16);}.cls-17{fill:url(#linear-gradient-17);}.cls-18{fill:url(#linear-gradient-18);}.cls-19{fill:url(#linear-gradient-19);}.cls-20{fill:url(#linear-gradient-20);}.cls-21{fill:url(#linear-gradient-21);}.cls-22{fill:url(#linear-gradient-22);}.cls-23{fill:url(#linear-gradient-23);}.cls-24{fill:url(#linear-gradient-24);}.cls-25{fill:url(#linear-gradient-25);}.cls-26{fill:url(#linear-gradient-26);}.cls-27{fill:url(#linear-gradient-27);}.cls-28{fill:url(#linear-gradient-28);}.cls-29{fill:url(#linear-gradient-29);}.cls-30{fill:url(#linear-gradient-30);}.cls-31{fill:url(#linear-gradient-31);}</style><linearGradient id="linear-gradient" x1="1398.31" y1="50.54" x2="-36.57" y2="31.94" gradientUnits="userSpaceOnUse"><stop offset="0" stop-color="#ff6464"/><stop offset="1" stop-color="#ffbe00"/></linearGradient><linearGradient id="linear-gradient-2" x1="1398.23" y1="57.12" x2="-36.66" y2="38.52" xlink:href="#linear-gradient"/><linearGradient id="linear-gradient-3" x1="1398.23" y1="57" x2="-36.66" y2="38.4" xlink:href="#linear-gradient"/><linearGradient id="linear-gradient-4" x1="1398.23" y1="56.43" x2="-36.65" y2="37.82" xlink:href="#linear-gradient"/><linearGradient id="linear-gradient-5" x1="1398.31" y1="50.91" x2="-36.58" y2="32.31" xlink:href="#linear-gradient"/><linearGradient id="linear-gradient-6" x1="1398.25" y1="55.1" x2="-36.63" y2="36.49" xlink:href="#linear-gradient"/><linearGradient id="linear-gradient-7" x1="1398.26" y1="54.47" x2="-36.62" y2="35.87" xlink:href="#linear-gradient"/><linearGradient id="linear-gradient-8" x1="1398.27" y1="53.45" x2="-36.61" y2="34.85" xlink:href="#linear-gradient"/><linearGradient id="linear-gradient-9" x1="1398.28" y1="52.82" x2="-36.6" y2="34.22" xlink:href="#linear-gradient"/><linearGradient id="linear-gradient-10" x1="1398.29" y1="52.24" x2="-36.59" y2="33.64" xlink:href="#linear-gradient"/><linearGradient id="linear-gradient-11" x1="1398.41" y1="42.61" x2="-36.47" y2="24" xlink:href="#linear-gradient"/><linearGradient id="linear-gradient-12" x1="1398.3" y1="51.23" x2="-36.58" y2="32.63" xlink:href="#linear-gradient"/><linearGradient id="linear-gradient-13" x1="1398.43" y1="41.44" x2="-36.45" y2="22.84" xlink:href="#linear-gradient"/><linearGradient id="linear-gradient-14" x1="1398.32" y1="49.77" x2="-36.56" y2="31.17" xlink:href="#linear-gradient"/><linearGradient id="linear-gradient-15" x1="1398.33" y1="48.74" x2="-36.55" y2="30.13" xlink:href="#linear-gradient"/><linearGradient id="linear-gradient-16" x1="1398.34" y1="48.27" x2="-36.54" y2="29.67" xlink:href="#linear-gradient"/><linearGradient id="linear-gradient-17" x1="1398.35" y1="47.37" x2="-36.53" y2="28.77" xlink:href="#linear-gradient"/><linearGradient id="linear-gradient-18" x1="1398.48" y1="37.83" x2="-36.41" y2="19.22" xlink:href="#linear-gradient"/><linearGradient id="linear-gradient-19" x1="1398.36" y1="46.74" x2="-36.52" y2="28.14" xlink:href="#linear-gradient"/><linearGradient id="linear-gradient-20" x1="1398.37" y1="46.16" x2="-36.52" y2="27.56" xlink:href="#linear-gradient"/><linearGradient id="linear-gradient-21" x1="1398.37" y1="45.67" x2="-36.51" y2="27.07" xlink:href="#linear-gradient"/><linearGradient id="linear-gradient-22" x1="1398.38" y1="45.11" x2="-36.5" y2="26.51" xlink:href="#linear-gradient"/><linearGradient id="linear-gradient-23" x1="1398.39" y1="44.61" x2="-36.5" y2="26" xlink:href="#linear-gradient"/><linearGradient id="linear-gradient-24" x1="1398.28" y1="53.2" x2="-36.61" y2="34.6" xlink:href="#linear-gradient"/><linearGradient id="linear-gradient-25" x1="1398.41" y1="42.86" x2="-36.47" y2="24.26" xlink:href="#linear-gradient"/><linearGradient id="linear-gradient-26" x1="1398.41" y1="42.74" x2="-36.47" y2="24.14" xlink:href="#linear-gradient"/><linearGradient id="linear-gradient-27" x1="1398.42" y1="42.11" x2="-36.46" y2="23.5" xlink:href="#linear-gradient"/><linearGradient id="linear-gradient-28" x1="1398.53" y1="34" x2="-36.36" y2="15.4" xlink:href="#linear-gradient"/><linearGradient id="linear-gradient-29" x1="1398.55" y1="32.45" x2="-36.34" y2="13.84" xlink:href="#linear-gradient"/><linearGradient id="linear-gradient-30" x1="1398.44" y1="40.78" x2="-36.45" y2="22.18" xlink:href="#linear-gradient"/><linearGradient id="linear-gradient-31" x1="1398.56" y1="31.25" x2="-36.32" y2="12.64" xlink:href="#linear-gradient"/></defs><title>Asset 8100</title><g id="Layer_2" data-name="Layer 2"><g id="Layer_1-2" data-name="Layer 1"><path class="cls-1" d="M4,61.52H0V3.72H31.67V7.43H4V32h26.1V35.7H4Z"/><path class="cls-2" d="M56.58,17.71a33.53,33.53,0,0,1,5.85.56L61.68,22a22.78,22.78,0,0,0-5.57-.67,10.84,10.84,0,0,0-9,4.67A19,19,0,0,0,43.57,37.8V61.52H39.66v-43H43l.39,7.75h.28a18.32,18.32,0,0,1,5.65-6.66A13.26,13.26,0,0,1,56.58,17.71Z"/><path class="cls-3" d="M88.53,62.31q-9.37,0-14.61-5.77T68.68,40.37q0-10.27,5.06-16.47a16.71,16.71,0,0,1,13.64-6.19q7.59,0,12,5.3t4.39,14.39v3.17h-31q.08,8.85,4.13,13.52t11.61,4.66A36.24,36.24,0,0,0,95,58.24,39.33,39.33,0,0,0,102.05,56v3.55a31.26,31.26,0,0,1-6.72,2.16A37.6,37.6,0,0,1,88.53,62.31ZM87.38,21.19a12.89,12.89,0,0,0-10,4.09Q73.66,29.38,73,37.09H99.6q0-7.47-3.24-11.69A10.74,10.74,0,0,0,87.38,21.19Z"/><path class="cls-4" d="M133,62.31q-9.37,0-14.61-5.77t-5.24-16.17q0-10.27,5.06-16.47a16.71,16.71,0,0,1,13.64-6.19q7.59,0,12,5.3t4.39,14.39v3.17h-31q.08,8.85,4.13,13.52c2.71,3.11,6.57,4.66,11.61,4.66a36.24,36.24,0,0,0,6.46-.51A39.33,39.33,0,0,0,146.49,56v3.55a31.26,31.26,0,0,1-6.72,2.16A37.52,37.52,0,0,1,133,62.31Zm-1.15-41.12a12.89,12.89,0,0,0-10,4.09q-3.77,4.09-4.39,11.81H144q0-7.47-3.24-11.69A10.72,10.72,0,0,0,131.82,21.19Z"/><path class="cls-5" d="M192.43,58.83a29.55,29.55,0,0,0,6.49-.63v3.16a20.58,20.58,0,0,1-6.57,1q-5.68,0-8.4-3t-2.71-9.57V21.94h-6.36V19.65l6.36-1.78,2-9.73h2v10.4h12.61v3.4H185.24V49.15q0,4.93,1.74,7.31A6.31,6.31,0,0,0,192.43,58.83Z"/><path class="cls-6" d="M242.57,61.52l-9.41-28.74q-.91-2.93-2.33-8.58h-.24l-.83,2.92L228,32.86l-9.57,28.66h-3.87l-12.3-43h4.19l6.88,24.91q2.41,9.25,3.16,13.6h.24q2.34-9.24,3.4-12.29L229,18.54h3.56L241,44.68C242.85,50.87,244,55,244.43,57h.23q.32-2.56,3.17-13.75l6.56-24.68h3.95l-11.66,43Z"/><path class="cls-7" d="M302.31,40q0,10.53-5.1,16.43t-14.08,5.91a18.22,18.22,0,0,1-10-2.73,17.4,17.4,0,0,1-6.6-7.82A28.48,28.48,0,0,1,264.28,40q0-10.51,5.1-16.39t14-5.87q8.86,0,13.9,5.95T302.31,40Zm-33.92,0q0,8.87,3.89,13.82t11,5q7.13,0,11-5T298.2,40q0-8.89-3.94-13.8t-11.05-4.9q-7.11,0-11,4.88T268.39,40Z"/><path class="cls-8" d="M369.61,61.52,360.2,32.78q-.92-2.93-2.34-8.58h-.23l-.83,2.92L355,32.86l-9.57,28.66h-3.88l-12.29-43h4.19l6.88,24.91q2.4,9.25,3.16,13.6h.24q2.33-9.24,3.4-12.29L356,18.54h3.56L368,44.68Q370.83,54,371.46,57h.24q.32-2.56,3.16-13.75l6.57-24.68h3.95l-11.66,43Z"/><path class="cls-9" d="M411.16,62.31q-9.37,0-14.61-5.77t-5.24-16.17q0-10.27,5.06-16.47A16.73,16.73,0,0,1,410,17.71q7.59,0,12,5.3t4.39,14.39v3.17h-31c.06,5.9,1.43,10.41,4.14,13.52s6.57,4.66,11.6,4.66a36.16,36.16,0,0,0,6.46-.51A39.09,39.09,0,0,0,424.68,56v3.55A30.91,30.91,0,0,1,418,61.74,37.45,37.45,0,0,1,411.16,62.31ZM410,21.19a12.9,12.9,0,0,0-10,4.09q-3.75,4.09-4.39,11.81h26.57q0-7.47-3.24-11.69A10.71,10.71,0,0,0,410,21.19Z"/><path class="cls-10" d="M455.6,62.31q-9.37,0-14.61-5.77t-5.24-16.17q0-10.27,5.06-16.47a16.75,16.75,0,0,1,13.65-6.19q7.59,0,12,5.3t4.38,14.39v3.17H439.87q.08,8.85,4.13,13.52t11.6,4.66a36.36,36.36,0,0,0,6.47-.51A39.27,39.27,0,0,0,469.12,56v3.55a30.91,30.91,0,0,1-6.72,2.16A37.45,37.45,0,0,1,455.6,62.31Zm-1.14-41.12a12.92,12.92,0,0,0-10,4.09q-3.75,4.09-4.39,11.81h26.57q0-7.47-3.24-11.69A10.7,10.7,0,0,0,454.46,21.19Z"/><path class="cls-11" d="M486.52,42.66l21.94-24.12h4.75L496.29,36.89l18.38,24.63H510l-16.33-21.7-7,6.4v15.3h-3.91V0h3.91V30.84l-.28,11.82Z"/><path class="cls-12" d="M548.52,50.33a10.24,10.24,0,0,1-4.39,8.88q-4.39,3.1-12.46,3.1-8.61,0-13.68-2.65V55.43a30.26,30.26,0,0,0,13.68,3.25q6.38,0,9.67-2.12a6.43,6.43,0,0,0,3.3-5.63A6.85,6.85,0,0,0,542,45.47q-2.62-2.22-8.64-4.35a50,50,0,0,1-9-4,12.47,12.47,0,0,1-3.93-3.8,9.48,9.48,0,0,1-1.33-5.16,8.82,8.82,0,0,1,4.05-7.63q4.07-2.81,11.33-2.81a34,34,0,0,1,13.21,2.61l-1.47,3.56a30.93,30.93,0,0,0-11.74-2.61A17,17,0,0,0,526.1,23,5.34,5.34,0,0,0,523,27.84a6.65,6.65,0,0,0,2.4,5.37q2.39,2,9.35,4.51a46.45,46.45,0,0,1,8.46,3.78,12.34,12.34,0,0,1,4,3.81A9.27,9.27,0,0,1,548.52,50.33Z"/><path class="cls-13" d="M596.36,17.71a17.84,17.84,0,0,1,8.06,1.7,16,16,0,0,1,6.09,5.82h.24c-.16-3.33-.24-6.58-.24-9.77V0h3.88V61.52h-2.57l-1-6.56h-.32q-4.9,7.35-14.07,7.35-8.9,0-13.6-5.53t-4.71-16.13q0-11.16,4.67-17T596.36,17.71Zm0,3.56q-7,0-10.58,4.94t-3.54,14.36q0,18.26,14.2,18.26,7.27,0,10.67-4.23t3.4-14V40q0-10-3.34-14.33T596.36,21.27Z"/><path class="cls-14" d="M646.18,62.31q-9.37,0-14.61-5.77t-5.24-16.17q0-10.27,5.06-16.47A16.71,16.71,0,0,1,645,17.71q7.59,0,12,5.3T661.4,37.4v3.17h-31q.07,8.85,4.13,13.52t11.61,4.66a36.24,36.24,0,0,0,6.46-.51A39.33,39.33,0,0,0,659.7,56v3.55A31.26,31.26,0,0,1,653,61.74,37.6,37.6,0,0,1,646.18,62.31ZM645,21.19a12.89,12.89,0,0,0-10,4.09q-3.77,4.09-4.39,11.81h26.57q0-7.47-3.24-11.69A10.74,10.74,0,0,0,645,21.19Z"/><path class="cls-15" d="M727,61.52V33.33c0-4.19-.81-7.25-2.45-9.17s-4.14-2.89-7.51-2.89q-6.6,0-9.77,3.64t-3.16,11.43V61.52h-4V32.14q0-10.86-10-10.87-6.75,0-9.84,3.94T677.18,37.8V61.52h-3.92v-43h3.24l.83,5.89h.24a12.4,12.4,0,0,1,5.06-5,15.11,15.11,0,0,1,7.24-1.76q10.15,0,13,7.63h.16a14.65,14.65,0,0,1,5.64-5.65,16.19,16.19,0,0,1,8-2c4.7,0,8.21,1.26,10.56,3.76s3.52,6.48,3.52,11.94V61.52Z"/><path class="cls-16" d="M780.29,40q0,10.53-5.1,16.43t-14.07,5.91a18.23,18.23,0,0,1-10-2.73,17.4,17.4,0,0,1-6.6-7.82A28.48,28.48,0,0,1,742.26,40q0-10.51,5.1-16.39t14-5.87q8.86,0,13.9,5.95T780.29,40Zm-33.92,0q0,8.87,3.89,13.82t11,5q7.13,0,11-5T776.18,40q0-8.89-3.93-13.8t-11.06-4.9q-7.11,0-11,4.88T746.37,40Z"/><path class="cls-17" d="M830.39,62.31q-9.21,0-14.43-5.81t-5.22-16.21q0-10.68,5.41-16.63T831,17.71a29.9,29.9,0,0,1,10.68,1.94l-1.07,3.48a31.35,31.35,0,0,0-9.69-1.86q-7.9,0-12,4.88t-4.07,14.06q0,8.7,4.07,13.62t11.39,4.92a27.89,27.89,0,0,0,10.87-2.09V60.3A24.7,24.7,0,0,1,830.39,62.31Z"/><path class="cls-18" d="M855.61,61.52H851.7V0h3.91Z"/><path class="cls-19" d="M896.1,61.52l-1-6.8h-.32a20.28,20.28,0,0,1-6.66,5.87,17.73,17.73,0,0,1-8.08,1.72q-6.33,0-9.85-3.24t-3.52-9a11.08,11.08,0,0,1,5.24-9.77q5.24-3.48,15.16-3.68l8.19-.24V33.57q0-6.13-2.49-9.25t-8-3.13a26.87,26.87,0,0,0-12.37,3.32l-1.47-3.4a32.84,32.84,0,0,1,14-3.32q7.08,0,10.58,3.68T899,32.94V61.52Zm-15.82-2.77q6.88,0,10.86-3.93t4-10.93V39.66L887.6,40q-9.06.44-12.91,2.83a8.15,8.15,0,0,0-3.86,7.45,8,8,0,0,0,2.48,6.27C875,58,877.28,58.75,880.28,58.75Z"/><path class="cls-20" d="M939.55,50.33a10.21,10.21,0,0,1-4.39,8.88q-4.38,3.1-12.45,3.1-8.62,0-13.68-2.65V55.43a30.2,30.2,0,0,0,13.68,3.25c4.24,0,7.47-.71,9.67-2.12a6.43,6.43,0,0,0,3.3-5.63,6.88,6.88,0,0,0-2.63-5.46q-2.62-2.22-8.64-4.35a49.88,49.88,0,0,1-9.06-4,12.57,12.57,0,0,1-3.93-3.8,9.56,9.56,0,0,1-1.32-5.16,8.82,8.82,0,0,1,4-7.63q4.05-2.81,11.33-2.81a33.86,33.86,0,0,1,13.2,2.61l-1.46,3.56a31,31,0,0,0-11.74-2.61A17,17,0,0,0,917.13,23a5.35,5.35,0,0,0-3.08,4.83,6.67,6.67,0,0,0,2.39,5.37q2.4,2,9.35,4.51a45.81,45.81,0,0,1,8.46,3.78,12.38,12.38,0,0,1,4,3.81A9.35,9.35,0,0,1,939.55,50.33Z"/><path class="cls-21" d="M977.27,50.33a10.21,10.21,0,0,1-4.39,8.88q-4.38,3.1-12.45,3.1-8.62,0-13.68-2.65V55.43a30.2,30.2,0,0,0,13.68,3.25q6.36,0,9.67-2.12a6.43,6.43,0,0,0,3.3-5.63,6.88,6.88,0,0,0-2.63-5.46q-2.62-2.22-8.64-4.35a49.88,49.88,0,0,1-9.06-4,12.47,12.47,0,0,1-3.93-3.8,9.56,9.56,0,0,1-1.32-5.16,8.82,8.82,0,0,1,4-7.63q4.05-2.81,11.33-2.81a33.86,33.86,0,0,1,13.2,2.61l-1.46,3.56a31,31,0,0,0-11.74-2.61A17,17,0,0,0,954.85,23a5.35,5.35,0,0,0-3.08,4.83,6.67,6.67,0,0,0,2.39,5.37q2.4,2,9.35,4.51A45.81,45.81,0,0,1,972,41.5a12.38,12.38,0,0,1,4,3.81A9.35,9.35,0,0,1,977.27,50.33Z"/><path class="cls-22" d="M1005.7,62.31q-9.37,0-14.61-5.77t-5.24-16.17q0-10.27,5.06-16.47a16.73,16.73,0,0,1,13.64-6.19q7.59,0,12,5.3t4.39,14.39v3.17H990c.06,5.9,1.43,10.41,4.14,13.52s6.57,4.66,11.6,4.66a36.16,36.16,0,0,0,6.46-.51,39.09,39.09,0,0,0,7.06-2.21v3.55a30.91,30.91,0,0,1-6.72,2.16A37.52,37.52,0,0,1,1005.7,62.31Zm-1.15-41.12a12.9,12.9,0,0,0-10,4.09q-3.75,4.09-4.39,11.81h26.57q0-7.47-3.24-11.69A10.71,10.71,0,0,0,1004.55,21.19Z"/><path class="cls-23" d="M1059.43,50.33a10.21,10.21,0,0,1-4.39,8.88q-4.38,3.1-12.45,3.1-8.62,0-13.68-2.65V55.43a30.2,30.2,0,0,0,13.68,3.25c4.24,0,7.47-.71,9.67-2.12a6.43,6.43,0,0,0,3.3-5.63,6.88,6.88,0,0,0-2.63-5.46q-2.62-2.22-8.64-4.35a49.71,49.71,0,0,1-9-4,12.51,12.51,0,0,1-3.94-3.8,9.56,9.56,0,0,1-1.32-5.16,8.82,8.82,0,0,1,4-7.63q4-2.81,11.33-2.81a33.86,33.86,0,0,1,13.2,2.61l-1.46,3.56a31,31,0,0,0-11.74-2.61A17,17,0,0,0,1037,23a5.35,5.35,0,0,0-3.08,4.83,6.67,6.67,0,0,0,2.39,5.37q2.4,2,9.35,4.51a45.81,45.81,0,0,1,8.46,3.78,12.27,12.27,0,0,1,4,3.81A9.35,9.35,0,0,1,1059.43,50.33Z"/><path class="cls-24" d="M1109.92,62.31q-9.92,0-14.47-7.43h-.27l.11,3.32q.17,2.92.16,6.41V81h-3.91V18.54h3.32l.75,6.13h.24q4.43-7,14.15-7,8.7,0,13.27,5.72t4.56,16.62q0,10.61-4.8,16.43T1109.92,62.31Zm-.08-3.48a12,12,0,0,0,10.23-4.9q3.62-4.91,3.61-13.72,0-18.95-13.68-18.94-7.51,0-11,4.13t-3.52,13.47v1.26q0,10.08,3.38,14.39T1109.84,58.83Z"/><path class="cls-25" d="M1156.66,17.71a33.53,33.53,0,0,1,5.85.56l-.75,3.75a22.8,22.8,0,0,0-5.58-.67,10.82,10.82,0,0,0-9,4.67,19,19,0,0,0-3.52,11.78V61.52h-3.91v-43h3.32l.39,7.75h.28a18.32,18.32,0,0,1,5.65-6.66A13.26,13.26,0,0,1,1156.66,17.71Z"/><path class="cls-26" d="M1206.79,40q0,10.53-5.1,16.43t-14.07,5.91a18.25,18.25,0,0,1-10-2.73,17.4,17.4,0,0,1-6.6-7.82A28.48,28.48,0,0,1,1168.76,40q0-10.51,5.1-16.39t14-5.87q8.87,0,13.9,5.95T1206.79,40Zm-33.92,0q0,8.87,3.89,13.82t11,5q7.13,0,11-5T1202.68,40q0-8.89-3.93-13.8t-11-4.9q-7.12,0-11,4.88T1172.87,40Z"/><path class="cls-27" d="M1228.1,61.52l-16.6-43h4l11.11,29.22a89.66,89.66,0,0,1,3.32,9.81h.24q1.62-5.39,3.32-9.89l11.11-29.14h4l-16.6,43Z"/><path class="cls-28" d="M1255.31,6.6q0-3.79,2.49-3.79a2.23,2.23,0,0,1,1.92,1,4.83,4.83,0,0,1,.69,2.8,5,5,0,0,1-.69,2.81,2.2,2.2,0,0,1-1.92,1Q1255.31,10.44,1255.31,6.6Zm4.46,54.92h-3.91v-43h3.91Z"/><path class="cls-29" d="M1289.9,17.71a17.92,17.92,0,0,1,8.07,1.7,16.1,16.1,0,0,1,6.09,5.82h.23c-.15-3.33-.23-6.58-.23-9.77V0h3.87V61.52h-2.57l-1-6.56h-.31q-4.9,7.35-14.08,7.35-8.89,0-13.6-5.53t-4.7-16.13q0-11.16,4.66-17T1289.9,17.71Zm0,3.56q-7,0-10.57,4.94t-3.54,14.36q0,18.26,14.19,18.26,7.27,0,10.68-4.23t3.4-14V40q0-10-3.34-14.33T1289.9,21.27Z"/><path class="cls-30" d="M1339.72,62.31q-9.37,0-14.61-5.77t-5.24-16.17q0-10.27,5.06-16.47a16.73,16.73,0,0,1,13.64-6.19q7.61,0,12,5.3t4.39,14.39v3.17h-31c.06,5.9,1.43,10.41,4.14,13.52s6.57,4.66,11.6,4.66a36.36,36.36,0,0,0,6.47-.51,39.27,39.27,0,0,0,7-2.21v3.55a30.91,30.91,0,0,1-6.72,2.16A37.45,37.45,0,0,1,1339.72,62.31Zm-1.15-41.12a12.9,12.9,0,0,0-10,4.09q-3.75,4.09-4.39,11.81h26.57q0-7.47-3.24-11.69A10.71,10.71,0,0,0,1338.57,21.19Z"/><path class="cls-31" d="M1382.54,17.71a17.92,17.92,0,0,1,8.07,1.7,16.17,16.17,0,0,1,6.09,5.82h.23c-.15-3.33-.23-6.58-.23-9.77V0h3.87V61.52H1398L1397,55h-.31q-4.9,7.35-14.08,7.35-8.89,0-13.6-5.53t-4.71-16.13q0-11.16,4.67-17T1382.54,17.71Zm0,3.56q-7,0-10.58,4.94t-3.53,14.36q0,18.26,14.19,18.26,7.28,0,10.68-4.23t3.4-14V40q0-10-3.35-14.33T1382.54,21.27Z"/></g></g></svg>