<svg xmlns="http://www.w3.org/2000/svg" xmlns:xlink="http://www.w3.org/1999/xlink" viewBox="0 0 1292.31 72"><defs><style>.cls-1{fill:url(#linear-gradient);}.cls-2{fill:url(#linear-gradient-2);}.cls-3{fill:url(#linear-gradient-3);}.cls-4{fill:url(#linear-gradient-4);}.cls-5{fill:url(#linear-gradient-5);}.cls-6{fill:url(#linear-gradient-6);}.cls-7{fill:url(#linear-gradient-7);}.cls-8{fill:url(#linear-gradient-8);}.cls-9{fill:url(#linear-gradient-9);}.cls-10{fill:url(#linear-gradient-10);}.cls-11{fill:url(#linear-gradient-11);}.cls-12{fill:url(#linear-gradient-12);}.cls-13{fill:url(#linear-gradient-13);}.cls-14{fill:url(#linear-gradient-14);}.cls-15{fill:url(#linear-gradient-15);}.cls-16{fill:url(#linear-gradient-16);}.cls-17{fill:url(#linear-gradient-17);}.cls-18{fill:url(#linear-gradient-18);}.cls-19{fill:url(#linear-gradient-19);}.cls-20{fill:url(#linear-gradient-20);}.cls-21{fill:url(#linear-gradient-21);}.cls-22{fill:url(#linear-gradient-22);}.cls-23{fill:url(#linear-gradient-23);}.cls-24{fill:url(#linear-gradient-24);}.cls-25{fill:url(#linear-gradient-25);}.cls-26{fill:url(#linear-gradient-26);}.cls-27{fill:url(#linear-gradient-27);}.cls-28{fill:url(#linear-gradient-28);}.cls-29{fill:url(#linear-gradient-29);}.cls-30{fill:url(#linear-gradient-30);}.cls-31{fill:url(#linear-gradient-31);}</style><linearGradient id="linear-gradient" x1="-4.77" y1="28.83" x2="1306.86" y2="40.46" gradientUnits="userSpaceOnUse"><stop offset="0" stop-color="#ff105a"/><stop offset="1" stop-color="#ffc008"/></linearGradient><linearGradient id="linear-gradient-2" x1="-4.82" y1="34.64" x2="1306.81" y2="46.27" xlink:href="#linear-gradient"/><linearGradient id="linear-gradient-3" x1="-4.82" y1="34.68" x2="1306.81" y2="46.3" xlink:href="#linear-gradient"/><linearGradient id="linear-gradient-4" x1="-4.82" y1="34.32" x2="1306.81" y2="45.94" xlink:href="#linear-gradient"/><linearGradient id="linear-gradient-5" x1="-4.78" y1="29.74" x2="1306.85" y2="41.37" xlink:href="#linear-gradient"/><linearGradient id="linear-gradient-6" x1="-4.81" y1="33.47" x2="1306.82" y2="45.09" xlink:href="#linear-gradient"/><linearGradient id="linear-gradient-7" x1="-4.81" y1="33.07" x2="1306.82" y2="44.7" xlink:href="#linear-gradient"/><linearGradient id="linear-gradient-8" x1="-4.8" y1="32.42" x2="1306.83" y2="44.05" xlink:href="#linear-gradient"/><linearGradient id="linear-gradient-9" x1="-4.8" y1="32.02" x2="1306.83" y2="43.65" xlink:href="#linear-gradient"/><linearGradient id="linear-gradient-10" x1="-4.79" y1="31.67" x2="1306.83" y2="43.29" xlink:href="#linear-gradient"/><linearGradient id="linear-gradient-11" x1="-4.72" y1="23.33" x2="1306.91" y2="34.96" xlink:href="#linear-gradient"/><linearGradient id="linear-gradient-12" x1="-4.79" y1="31.02" x2="1306.84" y2="42.64" xlink:href="#linear-gradient"/><linearGradient id="linear-gradient-13" x1="-4.72" y1="22.7" x2="1306.91" y2="34.33" xlink:href="#linear-gradient"/><linearGradient id="linear-gradient-14" x1="-4.78" y1="30.11" x2="1306.85" y2="41.74" xlink:href="#linear-gradient"/><linearGradient id="linear-gradient-15" x1="-4.77" y1="29.35" x2="1306.85" y2="40.98" xlink:href="#linear-gradient"/><linearGradient id="linear-gradient-16" x1="-4.77" y1="29.16" x2="1306.86" y2="40.79" xlink:href="#linear-gradient"/><linearGradient id="linear-gradient-17" x1="-4.77" y1="28.61" x2="1306.86" y2="40.24" xlink:href="#linear-gradient"/><linearGradient id="linear-gradient-18" x1="-4.69" y1="20.33" x2="1306.93" y2="31.96" xlink:href="#linear-gradient"/><linearGradient id="linear-gradient-19" x1="-4.76" y1="28.21" x2="1306.86" y2="39.84" xlink:href="#linear-gradient"/><linearGradient id="linear-gradient-20" x1="-4.76" y1="27.83" x2="1306.87" y2="39.46" xlink:href="#linear-gradient"/><linearGradient id="linear-gradient-21" x1="-4.76" y1="27.53" x2="1306.87" y2="39.15" xlink:href="#linear-gradient"/><linearGradient id="linear-gradient-22" x1="-4.76" y1="27.18" x2="1306.87" y2="38.81" xlink:href="#linear-gradient"/><linearGradient id="linear-gradient-23" x1="-4.75" y1="26.86" x2="1306.88" y2="38.49" xlink:href="#linear-gradient"/><linearGradient id="linear-gradient-24" x1="-4.82" y1="34.7" x2="1306.81" y2="46.33" xlink:href="#linear-gradient"/><linearGradient id="linear-gradient-25" x1="-4.74" y1="25.67" x2="1306.89" y2="37.29" xlink:href="#linear-gradient"/><linearGradient id="linear-gradient-26" x1="-4.74" y1="25.7" x2="1306.89" y2="37.33" xlink:href="#linear-gradient"/><linearGradient id="linear-gradient-27" x1="-4.74" y1="25.28" x2="1306.89" y2="36.91" xlink:href="#linear-gradient"/><linearGradient id="linear-gradient-28" x1="-4.67" y1="17.96" x2="1306.95" y2="29.59" xlink:href="#linear-gradient"/><linearGradient id="linear-gradient-29" x1="-4.67" y1="17.03" x2="1306.96" y2="28.66" xlink:href="#linear-gradient"/><linearGradient id="linear-gradient-30" x1="-4.73" y1="24.44" x2="1306.9" y2="36.07" xlink:href="#linear-gradient"/><linearGradient id="linear-gradient-31" x1="-4.66" y1="16.29" x2="1306.97" y2="27.91" xlink:href="#linear-gradient"/></defs><title>Asset 850</title><g id="Layer_2" data-name="Layer 2"><g id="Layer_1-2" data-name="Layer 1"><path class="cls-1" d="M6,54.7H0V3.3H28.65V8.61H6V27.42h21.3v5.31H6Z"/><path class="cls-2" d="M53.86,15.47a22.82,22.82,0,0,1,4.6.42l-.8,5.41a20,20,0,0,0-4.22-.52,10.26,10.26,0,0,0-8,3.79A13.85,13.85,0,0,0,42.12,34V54.7H36.28V16.17H41.1l.67,7.14h.28a17,17,0,0,1,5.16-5.8A11.67,11.67,0,0,1,53.86,15.47Z"/><path class="cls-3" d="M82,55.41q-8.55,0-13.48-5.21T63.53,35.75q0-9.32,4.59-14.8a15.23,15.23,0,0,1,12.32-5.48q7.25,0,11.46,4.76T96.12,32.8v3.69H69.57q.18,6.8,3.43,10.3t9.16,3.52a31.06,31.06,0,0,0,12.3-2.6v5.2a31.1,31.1,0,0,1-5.85,1.92A33.38,33.38,0,0,1,82,55.41Zm-1.58-35a9.5,9.5,0,0,0-7.4,3,14,14,0,0,0-3.26,8.37H89.86q0-5.52-2.46-8.46A8.66,8.66,0,0,0,80.37,20.36Z"/><path class="cls-4" d="M122.34,55.41q-8.53,0-13.48-5.21t-4.94-14.45q0-9.32,4.59-14.8a15.26,15.26,0,0,1,12.32-5.48q7.24,0,11.46,4.76t4.22,12.57v3.69H110q.18,6.8,3.43,10.3c2.16,2.35,5.22,3.52,9.15,3.52a31.15,31.15,0,0,0,12.31-2.6v5.2A31.1,31.1,0,0,1,129,54.83,33.41,33.41,0,0,1,122.34,55.41Zm-1.58-35a9.52,9.52,0,0,0-7.4,3,14,14,0,0,0-3.25,8.37h20.14q0-5.52-2.46-8.46A8.64,8.64,0,0,0,120.76,20.36Z"/><path class="cls-5" d="M177.61,50.59a19.37,19.37,0,0,0,3-.23,19.65,19.65,0,0,0,2.28-.47v4.46a10.4,10.4,0,0,1-2.79.76,20.92,20.92,0,0,1-3.32.3q-11.19,0-11.18-11.78V20.71h-5.52V17.89l5.52-2.42,2.46-8.23h3.37v8.93H182.6v4.54H171.42V43.38a7.84,7.84,0,0,0,1.65,5.35A5.78,5.78,0,0,0,177.61,50.59Z"/><path class="cls-6" d="M222.05,54.7,215,32.1c-.44-1.39-1.28-4.53-2.5-9.42h-.28q-1.39,6.15-2.46,9.49L202.46,54.7h-6.75L185.2,16.17h6.12Q195,30.69,197,38.29a89.94,89.94,0,0,1,2.23,10.23h.28q.39-2,1.25-5.19t1.49-5l7.07-22.12h6.33l6.89,22.12a74.8,74.8,0,0,1,2.67,10.16h.28a39.2,39.2,0,0,1,.76-3.91q.62-2.62,7.33-28.37h6L229,54.7Z"/><path class="cls-7" d="M279.84,35.4q0,9.42-4.74,14.72T262,55.41A17.33,17.33,0,0,1,252.81,53a16,16,0,0,1-6.19-7,24.29,24.29,0,0,1-2.18-10.62q0-9.42,4.71-14.68t13.08-5.25q8.08,0,12.85,5.38T279.84,35.4Zm-29.35,0q0,7.38,2.95,11.25t8.69,3.87q5.73,0,8.7-3.85t3-11.27q0-7.35-3-11.16t-8.78-3.81q-5.73,0-8.64,3.76T250.49,35.4Z"/><path class="cls-8" d="M340.24,54.7l-7.06-22.6q-.68-2.09-2.5-9.42h-.28q-1.41,6.15-2.46,9.49L320.66,54.7h-6.75L303.4,16.17h6.12l5.67,22.12a90.74,90.74,0,0,1,2.24,10.23h.28q.38-2,1.25-5.19t1.49-5l7.07-22.12h6.32l6.89,22.12a73.58,73.58,0,0,1,2.68,10.16h.28a35.82,35.82,0,0,1,.75-3.91q.62-2.62,7.33-28.37h6.05L347.17,54.7Z"/><path class="cls-9" d="M381.06,55.41q-8.55,0-13.48-5.21t-4.94-14.45q0-9.32,4.58-14.8a15.27,15.27,0,0,1,12.33-5.48q7.24,0,11.46,4.76t4.22,12.57v3.69H368.68q.18,6.8,3.43,10.3t9.16,3.52a31.06,31.06,0,0,0,12.3-2.6v5.2a31.1,31.1,0,0,1-5.85,1.92A33.38,33.38,0,0,1,381.06,55.41Zm-1.58-35a9.5,9.5,0,0,0-7.4,3,14,14,0,0,0-3.26,8.37H389q0-5.52-2.46-8.46A8.66,8.66,0,0,0,379.48,20.36Z"/><path class="cls-10" d="M421.45,55.41q-8.54,0-13.48-5.21T403,35.75q0-9.32,4.59-14.8a15.26,15.26,0,0,1,12.32-5.48q7.24,0,11.46,4.76t4.22,12.57v3.69H409.08q.18,6.8,3.43,10.3c2.16,2.35,5.22,3.52,9.15,3.52A31.15,31.15,0,0,0,434,47.71v5.2a31.1,31.1,0,0,1-5.85,1.92A33.48,33.48,0,0,1,421.45,55.41Zm-1.58-35a9.52,9.52,0,0,0-7.4,3,14,14,0,0,0-3.25,8.37h20.14q0-5.52-2.46-8.46A8.64,8.64,0,0,0,419.87,20.36Z"/><path class="cls-11" d="M451.34,35a67.23,67.23,0,0,1,4.6-5.62l12.45-13.19h6.92L459.7,32.59,476.4,54.7h-7.06L455.73,36.49l-4.39,3.8V54.7h-5.77V0h5.77V29c0,1.29-.1,3.29-.29,6Z"/><path class="cls-12" d="M508.22,44.19a9.66,9.66,0,0,1-4,8.3q-4,2.91-11.25,2.92Q485.3,55.41,481,53V47.57a29.39,29.39,0,0,0,6,2.21,24.79,24.79,0,0,0,6.13.81,13.92,13.92,0,0,0,7-1.46,5,5,0,0,0,.51-8.3q-2-1.59-7.61-3.78a41.9,41.9,0,0,1-7.65-3.49,10.47,10.47,0,0,1-3.37-3.4,8.79,8.79,0,0,1-1.11-4.53,8.67,8.67,0,0,1,3.83-7.44q3.84-2.72,10.52-2.72A30.72,30.72,0,0,1,507.41,18l-2.07,4.75a27.85,27.85,0,0,0-10.52-2.39,12,12,0,0,0-6.25,1.3,4,4,0,0,0-2.11,3.58,4.37,4.37,0,0,0,.79,2.64A7.73,7.73,0,0,0,489.8,30a55.56,55.56,0,0,0,6.75,2.85q6.85,2.51,9.26,5A8.85,8.85,0,0,1,508.22,44.19Z"/><path class="cls-13" d="M562.64,49.54h-.32q-4,5.87-12.09,5.87-7.56,0-11.76-5.17t-4.2-14.7q0-9.52,4.22-14.8t11.74-5.27q7.85,0,12,5.69h.46l-.25-2.77-.14-2.71V0h5.84V54.7h-4.75Zm-11.67,1q6,0,8.66-3.25t2.69-10.5V35.54q0-8.19-2.72-11.69t-8.7-3.49a8.94,8.94,0,0,0-7.86,4q-2.73,4-2.72,11.26T543,46.76A9.18,9.18,0,0,0,551,50.52Z"/><path class="cls-14" d="M596.81,55.41q-8.53,0-13.48-5.21t-4.94-14.45q0-9.32,4.59-14.8a15.25,15.25,0,0,1,12.32-5.48q7.25,0,11.46,4.76T611,32.8v3.69H584.44q.16,6.8,3.43,10.3c2.16,2.35,5.22,3.52,9.15,3.52a31.15,31.15,0,0,0,12.31-2.6v5.2a31.19,31.19,0,0,1-5.86,1.92A33.38,33.38,0,0,1,596.81,55.41Zm-1.58-35a9.52,9.52,0,0,0-7.4,3,14,14,0,0,0-3.25,8.37h20.14q0-5.52-2.46-8.46A8.64,8.64,0,0,0,595.23,20.36Z"/><path class="cls-15" d="M670,54.7V29.64c0-3.07-.65-5.38-2-6.91s-3.35-2.3-6.11-2.3q-5.46,0-8.05,3.12t-2.61,9.64V54.7h-5.83V29.64c0-3.07-.66-5.38-2-6.91s-3.36-2.3-6.15-2.3q-5.49,0-8,3.28t-2.54,10.78V54.7h-5.84V16.17h4.75l1,5.28h.28a11.48,11.48,0,0,1,4.65-4.4,14.32,14.32,0,0,1,6.74-1.58q9,0,11.81,6.54h.28a12.25,12.25,0,0,1,5-4.78,15.42,15.42,0,0,1,7.46-1.76q6.54,0,9.79,3.36t3.25,10.74V54.7Z"/><path class="cls-16" d="M721.16,35.4q0,9.42-4.75,14.72T703.3,55.41A17.33,17.33,0,0,1,694.13,53a16,16,0,0,1-6.19-7,24.15,24.15,0,0,1-2.18-10.62q0-9.42,4.71-14.68t13.08-5.25q8.09,0,12.85,5.38T721.16,35.4Zm-29.36,0q0,7.38,3,11.25t8.68,3.87q5.73,0,8.7-3.85t3-11.27q0-7.35-3-11.16t-8.77-3.81q-5.73,0-8.65,3.76T691.8,35.4Z"/><path class="cls-17" d="M765.49,55.41q-8.37,0-13-5.15T748,35.68q0-9.66,4.66-14.94t13.27-5.27a26.19,26.19,0,0,1,5.55.6,18.16,18.16,0,0,1,4.36,1.4l-1.79,5a27.14,27.14,0,0,0-4.22-1.28,18.79,18.79,0,0,0-4-.51q-11.75,0-11.74,15,0,7.11,2.86,10.9t8.49,3.8a25.82,25.82,0,0,0,9.88-2.08V53.4A21,21,0,0,1,765.49,55.41Z"/><path class="cls-18" d="M790.21,54.7h-5.84V0h5.84Z"/><path class="cls-19" d="M826.28,54.7l-1.16-5.48h-.28a16.26,16.26,0,0,1-5.75,4.9,17.47,17.47,0,0,1-7.16,1.29q-5.73,0-9-3t-3.25-8.4q0-11.67,18.67-12.23l6.54-.21v-2.4q0-4.53-1.95-6.69t-6.25-2.16a25.35,25.35,0,0,0-10.89,2.95L804,18.84a27.25,27.25,0,0,1,6.24-2.42,26.91,26.91,0,0,1,6.81-.88q6.88,0,10.21,3.06t3.32,9.81V54.7Zm-13.19-4.11q5.46,0,8.56-3t3.12-8.37V35.75l-5.84.25q-7,.24-10,2.16a6.53,6.53,0,0,0-3.07,6,6,6,0,0,0,1.91,4.82A8,8,0,0,0,813.09,50.59Z"/><path class="cls-20" d="M867.48,44.19a9.66,9.66,0,0,1-4,8.3q-4,2.91-11.25,2.92-7.66,0-12-2.43V47.57a29.39,29.39,0,0,0,6,2.21,24.79,24.79,0,0,0,6.13.81,13.92,13.92,0,0,0,7-1.46,5,5,0,0,0,.51-8.3c-1.3-1.06-3.83-2.32-7.61-3.78a41.41,41.41,0,0,1-7.64-3.49,10.41,10.41,0,0,1-3.38-3.4,8.79,8.79,0,0,1-1.11-4.53A8.65,8.65,0,0,1,844,18.19q3.82-2.72,10.51-2.72A30.68,30.68,0,0,1,866.67,18l-2.07,4.75a27.81,27.81,0,0,0-10.51-2.39,12,12,0,0,0-6.26,1.3,4,4,0,0,0-2.11,3.58,4.37,4.37,0,0,0,.79,2.64A7.73,7.73,0,0,0,849.06,30a55.56,55.56,0,0,0,6.75,2.85q6.86,2.51,9.26,5A8.85,8.85,0,0,1,867.48,44.19Z"/><path class="cls-21" d="M901.83,44.19a9.66,9.66,0,0,1-4,8.3q-4,2.91-11.25,2.92-7.67,0-12-2.43V47.57a29.39,29.39,0,0,0,6,2.21,24.79,24.79,0,0,0,6.13.81,13.92,13.92,0,0,0,7-1.46,5,5,0,0,0,.51-8.3q-1.95-1.59-7.61-3.78A41.58,41.58,0,0,1,879,33.56a10.47,10.47,0,0,1-3.37-3.4,8.79,8.79,0,0,1-1.11-4.53,8.67,8.67,0,0,1,3.83-7.44q3.84-2.72,10.52-2.72A30.72,30.72,0,0,1,901,18L899,22.75a27.85,27.85,0,0,0-10.52-2.39,12,12,0,0,0-6.25,1.3,4,4,0,0,0-2.11,3.58,4.37,4.37,0,0,0,.79,2.64A7.53,7.53,0,0,0,883.41,30a55.56,55.56,0,0,0,6.75,2.85q6.86,2.51,9.26,5A8.85,8.85,0,0,1,901.83,44.19Z"/><path class="cls-22" d="M927.6,55.41q-8.55,0-13.48-5.21t-4.94-14.45q0-9.32,4.58-14.8a15.27,15.27,0,0,1,12.33-5.48q7.23,0,11.46,4.76t4.22,12.57v3.69H915.22q.18,6.8,3.43,10.3t9.16,3.52a31.06,31.06,0,0,0,12.3-2.6v5.2a31.1,31.1,0,0,1-5.85,1.92A33.38,33.38,0,0,1,927.6,55.41Zm-1.58-35a9.5,9.5,0,0,0-7.4,3,14,14,0,0,0-3.26,8.37h20.15q0-5.52-2.46-8.46A8.66,8.66,0,0,0,926,20.36Z"/><path class="cls-23" d="M976.57,44.19a9.66,9.66,0,0,1-4,8.3q-4,2.91-11.25,2.92-7.66,0-11.95-2.43V47.57a29.39,29.39,0,0,0,6,2.21,24.79,24.79,0,0,0,6.13.81,13.92,13.92,0,0,0,7-1.46,5,5,0,0,0,.51-8.3c-1.3-1.06-3.83-2.32-7.61-3.78a41.41,41.41,0,0,1-7.64-3.49,10.41,10.41,0,0,1-3.38-3.4,8.79,8.79,0,0,1-1.11-4.53,8.65,8.65,0,0,1,3.84-7.44q3.82-2.72,10.51-2.72A30.68,30.68,0,0,1,975.76,18l-2.07,4.75a27.81,27.81,0,0,0-10.51-2.39,12,12,0,0,0-6.26,1.3,4,4,0,0,0-2.11,3.58,4.37,4.37,0,0,0,.79,2.64A7.73,7.73,0,0,0,958.15,30a55.56,55.56,0,0,0,6.75,2.85q6.86,2.51,9.26,5A8.85,8.85,0,0,1,976.57,44.19Z"/><path class="cls-24" d="M1022.7,55.41a16.81,16.81,0,0,1-6.88-1.39,13,13,0,0,1-5.22-4.27h-.42a51.85,51.85,0,0,1,.42,6.39V72h-5.83V16.17h4.74l.81,5.28h.28a13.5,13.5,0,0,1,5.24-4.57,15.9,15.9,0,0,1,6.86-1.41q7.65,0,11.83,5.24t4.16,14.69q0,9.49-4.23,14.75T1022.7,55.41Zm-.85-35c-3.94,0-6.78,1.09-8.54,3.27s-2.66,5.64-2.71,10.4v1.3q0,8.13,2.71,11.62t8.68,3.5a9,9,0,0,0,7.82-4q2.84-4,2.83-11.15t-2.83-11A9.29,9.29,0,0,0,1021.85,20.43Z"/><path class="cls-25" d="M1066.46,15.47a22.92,22.92,0,0,1,4.61.42l-.81,5.41a19.9,19.9,0,0,0-4.22-.52,10.29,10.29,0,0,0-8,3.79,13.9,13.9,0,0,0-3.32,9.46V54.7h-5.83V16.17h4.81l.67,7.14h.28a16.88,16.88,0,0,1,5.17-5.8A11.64,11.64,0,0,1,1066.46,15.47Z"/><path class="cls-26" d="M1111.54,35.4q0,9.42-4.75,14.72t-13.11,5.29A17.34,17.34,0,0,1,1084.5,53a16.1,16.1,0,0,1-6.19-7,24.29,24.29,0,0,1-2.18-10.62q0-9.42,4.71-14.68t13.08-5.25q8.08,0,12.85,5.38T1111.54,35.4Zm-29.36,0q0,7.38,3,11.25t8.69,3.87q5.73,0,8.7-3.85t3-11.27q0-7.35-3-11.16t-8.77-3.81q-5.73,0-8.65,3.76T1082.18,35.4Z"/><path class="cls-27" d="M1130.2,54.7l-14.62-38.53h6.26L1130.13,39a108.71,108.71,0,0,1,3.31,10.41h.28a80,80,0,0,1,2.44-7.72q2.05-5.85,9.23-25.54h6.26L1137,54.7Z"/><path class="cls-28" d="M1157.34,5.73a3.88,3.88,0,0,1,1-2.94,3.64,3.64,0,0,1,4.88,0,3.82,3.82,0,0,1,1,2.92,3.89,3.89,0,0,1-1,2.94,3.58,3.58,0,0,1-4.88,0A4,4,0,0,1,1157.34,5.73Zm6.33,49h-5.83V16.17h5.83Z"/><path class="cls-29" d="M1202.27,49.54H1202q-4.05,5.87-12.1,5.87-7.56,0-11.76-5.17t-4.2-14.7q0-9.52,4.22-14.8t11.74-5.27q7.85,0,12,5.69h.45l-.24-2.77-.14-2.71V0h5.83V54.7h-4.74Zm-11.67,1c4,0,6.87-1.08,8.67-3.25s2.69-5.67,2.69-10.5V35.54q0-8.19-2.73-11.69t-8.7-3.49a8.94,8.94,0,0,0-7.86,4q-2.72,4-2.72,11.26t2.71,11.15A9.15,9.15,0,0,0,1190.6,50.52Z"/><path class="cls-30" d="M1236.45,55.41q-8.55,0-13.49-5.21T1218,35.75q0-9.32,4.59-14.8a15.26,15.26,0,0,1,12.32-5.48q7.24,0,11.46,4.76t4.22,12.57v3.69h-26.54q.18,6.8,3.43,10.3t9.16,3.52a31.1,31.1,0,0,0,12.3-2.6v5.2a31.1,31.1,0,0,1-5.85,1.92A33.38,33.38,0,0,1,1236.45,55.41Zm-1.59-35a9.52,9.52,0,0,0-7.4,3,14,14,0,0,0-3.25,8.37h20.15q0-5.52-2.47-8.46A8.64,8.64,0,0,0,1234.86,20.36Z"/><path class="cls-31" d="M1286.79,49.54h-.32q-4,5.87-12.09,5.87-7.56,0-11.76-5.17t-4.2-14.7q0-9.52,4.22-14.8t11.74-5.27q7.84,0,12,5.69h.46l-.25-2.77-.14-2.71V0h5.84V54.7h-4.75Zm-11.67,1q6,0,8.66-3.25t2.69-10.5V35.54q0-8.19-2.72-11.69t-8.7-3.49a8.94,8.94,0,0,0-7.86,4q-2.73,4-2.73,11.26t2.71,11.15A9.18,9.18,0,0,0,1275.12,50.52Z"/></g></g></svg>