<svg xmlns="http://www.w3.org/2000/svg" xmlns:xlink="http://www.w3.org/1999/xlink" viewBox="0 0 619.11 203.72"><defs><style>.cls-1{fill:url(#linear-gradient);}.cls-2{fill:url(#linear-gradient-2);}.cls-3{fill:url(#linear-gradient-3);}.cls-4{fill:url(#linear-gradient-4);}.cls-5{fill:url(#linear-gradient-5);}.cls-6{fill:url(#linear-gradient-6);}.cls-7{fill:url(#linear-gradient-7);}.cls-8{fill:url(#linear-gradient-8);}.cls-9{fill:url(#linear-gradient-9);}.cls-10{fill:url(#linear-gradient-10);}.cls-11{fill:url(#linear-gradient-11);}</style><linearGradient id="linear-gradient" x1="59.82" y1="101.86" x2="368.16" y2="101.86" gradientUnits="userSpaceOnUse"><stop offset="0" stop-color="#ffb719"/><stop offset="1" stop-color="#ff1996"/></linearGradient><linearGradient id="linear-gradient-2" x1="79.71" y1="101.54" x2="375.06" y2="150.38" xlink:href="#linear-gradient"/><linearGradient id="linear-gradient-3" x1="80.54" y1="96.51" x2="375.89" y2="145.35" xlink:href="#linear-gradient"/><linearGradient id="linear-gradient-4" x1="81.34" y1="91.69" x2="376.69" y2="140.53" xlink:href="#linear-gradient"/><linearGradient id="linear-gradient-5" x1="82.32" y1="85.75" x2="377.67" y2="134.59" xlink:href="#linear-gradient"/><linearGradient id="linear-gradient-6" x1="83.4" y1="79.23" x2="378.75" y2="128.07" xlink:href="#linear-gradient"/><linearGradient id="linear-gradient-7" x1="84.34" y1="73.56" x2="379.69" y2="122.4" xlink:href="#linear-gradient"/><linearGradient id="linear-gradient-8" x1="84.79" y1="70.84" x2="380.14" y2="119.68" xlink:href="#linear-gradient"/><linearGradient id="linear-gradient-9" x1="85.6" y1="65.9" x2="380.95" y2="114.73" xlink:href="#linear-gradient"/><linearGradient id="linear-gradient-10" x1="86" y1="63.48" x2="381.35" y2="112.32" xlink:href="#linear-gradient"/><linearGradient id="linear-gradient-11" x1="86.99" y1="57.54" x2="382.34" y2="106.38" xlink:href="#linear-gradient"/></defs><title>Asset 13100</title><g id="Layer_2" data-name="Layer 2"><g id="Layer_1-2" data-name="Layer 1"><path class="cls-1" d="M612.71,66.25C598.71,27.72,561.66,0,518.45,0H100.24C45.11,0,0,45.11,0,100.24v3.25c0,55.12,45.11,100.23,100.24,100.23H518.45c43.27,0,80.37-27.79,94.32-66.41a102.27,102.27,0,0,0-.06-71.06ZM100.24,194.7a90,90,0,0,1-35.39-7.19,92.24,92.24,0,0,1-48.64-48.63A90,90,0,0,1,9,103.49v-3.25a90,90,0,0,1,7.19-35.39A92.31,92.31,0,0,1,64.85,16.21,90,90,0,0,1,100.24,9h375a101.89,101.89,0,0,0,0,185.67Zm406.38-64.81L499.73,123l20.8-20.8-21-21,6.89-6.9,27.87,27.87Z"/><path class="cls-2" d="M111.31,97.1a5.22,5.22,0,0,0-1-.82A18.24,18.24,0,0,0,108,95a20.36,20.36,0,0,0-3-1.15,10.78,10.78,0,0,0-3.2-.5q-4.39,0-4.4,3.25a2.73,2.73,0,0,0,.48,1.65,4.19,4.19,0,0,0,1.4,1.18,11.77,11.77,0,0,0,2.32,1l3.25,1a38.56,38.56,0,0,1,4.6,1.68,12.21,12.21,0,0,1,3.48,2.25,9.16,9.16,0,0,1,2.2,3.28,14.36,14.36,0,0,1-.35,10.2,10.07,10.07,0,0,1-3,3.68,11.89,11.89,0,0,1-4.25,2,19.41,19.41,0,0,1-5,.63,25.18,25.18,0,0,1-4-.33,26.8,26.8,0,0,1-4-1,30.24,30.24,0,0,1-3.77-1.51,20.64,20.64,0,0,1-3.38-2l3.6-7.86a7.19,7.19,0,0,0,1.3,1A18.44,18.44,0,0,0,95.14,115a27.41,27.41,0,0,0,3.62,1.38,14.09,14.09,0,0,0,4,.6q4.35,0,4.35-2.91a2.57,2.57,0,0,0-.65-1.82,5.87,5.87,0,0,0-1.8-1.29,17.54,17.54,0,0,0-2.72-1.07l-3.43-1.1A28.32,28.32,0,0,1,94.31,107a11,11,0,0,1-3-2.23,8,8,0,0,1-1.75-2.91A11.55,11.55,0,0,1,89,98a13.31,13.31,0,0,1,1-5.45,11.71,11.71,0,0,1,2.85-4,12.06,12.06,0,0,1,4.18-2.44,15.19,15.19,0,0,1,5-.83,17.14,17.14,0,0,1,3.65.39,25,25,0,0,1,6.53,2.36c.95.51,1.82,1,2.62,1.54Z"/><path class="cls-3" d="M145.71,116.79v7.92h-25v-39h24.5v7.92H129v7.59h14v7.32H129v8.3Z"/><path class="cls-4" d="M175.66,116.79v7.92H150.71v-39h24.5v7.92h-16.3v7.59h14v7.32h-14v8.3Z"/><path class="cls-5" d="M192.31,124.71v-39h13.25a18,18,0,0,1,7.7,1.54,16,16,0,0,1,5.53,4.18,17.88,17.88,0,0,1,3.35,6.19,24.87,24.87,0,0,1,1.12,7.56,24.57,24.57,0,0,1-1.25,8.06,17.61,17.61,0,0,1-3.57,6.16,16.11,16.11,0,0,1-5.6,4,18.42,18.42,0,0,1-7.28,1.4Zm22.6-19.58a16.82,16.82,0,0,0-.62-4.7,11,11,0,0,0-1.83-3.66,8,8,0,0,0-3-2.36,9.15,9.15,0,0,0-3.95-.83h-5.05v23.21h5.05a8.75,8.75,0,0,0,4-.88,8.26,8.26,0,0,0,2.93-2.45,11.59,11.59,0,0,0,1.8-3.68A16.61,16.61,0,0,0,214.91,105.13Z"/><path class="cls-6" d="M253.06,116.79v7.92H228.11v-39h24.5v7.92h-16.3v7.59h14v7.32h-14v8.3Z"/><path class="cls-7" d="M285.11,93.58h-10.8v31.13h-8.2V93.58H255.26V85.66h29.85Z"/><path class="cls-8" d="M295.26,85.66h7.4l12.95,39.05h-8.4L304.46,116h-11l-2.7,8.74h-8.4Zm7.85,24.09L299,96l-4.25,13.8Z"/><path class="cls-9" d="M319.11,124.71v-39h8.2v39.05Z"/><path class="cls-10" d="M334.11,124.71v-39h8.2v31.13h17.2v7.92Z"/><path class="cls-11" d="M384.66,97.1a5.22,5.22,0,0,0-1.05-.82A18.24,18.24,0,0,0,381.36,95a20.36,20.36,0,0,0-2.95-1.15,10.78,10.78,0,0,0-3.2-.5q-4.4,0-4.4,3.25a2.8,2.8,0,0,0,.47,1.65,4.4,4.4,0,0,0,1.4,1.18,12.15,12.15,0,0,0,2.33,1l3.25,1a38.56,38.56,0,0,1,4.6,1.68,12.16,12.16,0,0,1,3.47,2.25,9,9,0,0,1,2.2,3.28,12.27,12.27,0,0,1,.78,4.62,12.53,12.53,0,0,1-1.13,5.58,10.15,10.15,0,0,1-3,3.68,11.89,11.89,0,0,1-4.25,2,19.41,19.41,0,0,1-4.95.63,25.18,25.18,0,0,1-4-.33,26.8,26.8,0,0,1-4-1,31,31,0,0,1-3.78-1.51,21,21,0,0,1-3.37-2l3.6-7.86a7.19,7.19,0,0,0,1.3,1,18.82,18.82,0,0,0,2.72,1.54,28.12,28.12,0,0,0,3.63,1.38,14,14,0,0,0,4.05.6q4.35,0,4.35-2.91a2.62,2.62,0,0,0-.65-1.82,5.87,5.87,0,0,0-1.8-1.29,18.1,18.1,0,0,0-2.73-1.07l-3.42-1.1a28.32,28.32,0,0,1-4.25-1.79,11.22,11.22,0,0,1-3-2.23,8.3,8.3,0,0,1-1.75-2.91,11.82,11.82,0,0,1-.57-3.85,13.31,13.31,0,0,1,1.05-5.45,11.71,11.71,0,0,1,2.85-4,12.1,12.1,0,0,1,4.17-2.44,15.25,15.25,0,0,1,5-.83,17.21,17.21,0,0,1,3.65.39,23.71,23.71,0,0,1,3.45,1,23.34,23.34,0,0,1,3.07,1.37c.95.51,1.83,1,2.63,1.54Z"/></g></g></svg>