<svg xmlns="http://www.w3.org/2000/svg" xmlns:xlink="http://www.w3.org/1999/xlink" viewBox="0 0 619.11 203.72"><defs><style>.cls-1{fill:url(#linear-gradient);}.cls-2{fill:url(#linear-gradient-2);}.cls-3{fill:url(#linear-gradient-3);}.cls-4{fill:url(#linear-gradient-4);}.cls-5{fill:url(#linear-gradient-5);}.cls-6{fill:url(#linear-gradient-6);}.cls-7{fill:url(#linear-gradient-7);}.cls-8{fill:url(#linear-gradient-8);}.cls-9{fill:url(#linear-gradient-9);}.cls-10{fill:url(#linear-gradient-10);}.cls-11{fill:url(#linear-gradient-11);}</style><linearGradient id="linear-gradient" x1="59.82" y1="101.86" x2="368.16" y2="101.86" gradientUnits="userSpaceOnUse"><stop offset="0" stop-color="#4525ff"/><stop offset="1" stop-color="#a736ff"/></linearGradient><linearGradient id="linear-gradient-2" x1="84.5" y1="99.29" x2="379.85" y2="148.13" xlink:href="#linear-gradient"/><linearGradient id="linear-gradient-3" x1="85.33" y1="94.26" x2="380.68" y2="143.1" xlink:href="#linear-gradient"/><linearGradient id="linear-gradient-4" x1="86.13" y1="89.44" x2="381.48" y2="138.28" xlink:href="#linear-gradient"/><linearGradient id="linear-gradient-5" x1="87.11" y1="83.5" x2="382.46" y2="132.34" xlink:href="#linear-gradient"/><linearGradient id="linear-gradient-6" x1="88.19" y1="76.99" x2="383.54" y2="125.82" xlink:href="#linear-gradient"/><linearGradient id="linear-gradient-7" x1="89.13" y1="71.31" x2="384.47" y2="120.15" xlink:href="#linear-gradient"/><linearGradient id="linear-gradient-8" x1="89.57" y1="68.6" x2="384.92" y2="117.43" xlink:href="#linear-gradient"/><linearGradient id="linear-gradient-9" x1="90.39" y1="63.65" x2="385.74" y2="112.49" xlink:href="#linear-gradient"/><linearGradient id="linear-gradient-10" x1="90.79" y1="61.24" x2="386.14" y2="110.07" xlink:href="#linear-gradient"/><linearGradient id="linear-gradient-11" x1="91.77" y1="55.3" x2="387.12" y2="104.13" xlink:href="#linear-gradient"/></defs><title>Asset 11100</title><g id="Layer_2" data-name="Layer 2"><g id="Layer_1-2" data-name="Layer 1"><path class="cls-1" d="M612.71,66.25C598.71,27.72,561.66,0,518.45,0H100.24C45.11,0,0,45.11,0,100.24v3.25c0,55.12,45.11,100.23,100.24,100.23H518.45c43.27,0,80.37-27.79,94.32-66.41a102.27,102.27,0,0,0-.06-71.06ZM100.24,194.7a90,90,0,0,1-35.39-7.19,92.24,92.24,0,0,1-48.64-48.63A90,90,0,0,1,9,103.49v-3.25a90,90,0,0,1,7.19-35.39A92.31,92.31,0,0,1,64.85,16.21,90,90,0,0,1,100.24,9h375a101.89,101.89,0,0,0,0,185.67Zm406.38-64.81L499.73,123l20.8-20.8-21-21,6.89-6.9,27.87,27.87Z"/><path class="cls-2" d="M116.1,94.86a4.77,4.77,0,0,0-1-.83,19.74,19.74,0,0,0-2.25-1.26,20.37,20.37,0,0,0-3-1.16,10.77,10.77,0,0,0-3.2-.49q-4.4,0-4.4,3.24a2.73,2.73,0,0,0,.48,1.65,4.25,4.25,0,0,0,1.39,1.18,12.8,12.8,0,0,0,2.33,1l3.25,1a40.44,40.44,0,0,1,4.6,1.67,12.18,12.18,0,0,1,3.47,2.26,9.1,9.1,0,0,1,2.21,3.27,14.3,14.3,0,0,1-.36,10.2,10.27,10.27,0,0,1-3,3.69,12,12,0,0,1-4.25,2,19.42,19.42,0,0,1-5,.64,25.18,25.18,0,0,1-4-.33,26.82,26.82,0,0,1-4-1,29.48,29.48,0,0,1-3.78-1.51,20.93,20.93,0,0,1-3.37-2l3.6-7.87a7.53,7.53,0,0,0,1.3,1,19.81,19.81,0,0,0,2.72,1.54,26.74,26.74,0,0,0,3.63,1.37,14,14,0,0,0,4,.61c2.9,0,4.35-1,4.35-2.92a2.59,2.59,0,0,0-.65-1.81,6.06,6.06,0,0,0-1.8-1.3,19.22,19.22,0,0,0-2.73-1.07l-3.42-1.1a28.32,28.32,0,0,1-4.25-1.79,11.41,11.41,0,0,1-3-2.22,8.43,8.43,0,0,1-1.75-2.92,11.78,11.78,0,0,1-.57-3.85,13.27,13.27,0,0,1,1-5.44,11.62,11.62,0,0,1,2.85-4,12.13,12.13,0,0,1,4.17-2.45,15.25,15.25,0,0,1,5-.82,17.2,17.2,0,0,1,3.65.38,26.51,26.51,0,0,1,3.45,1,22.11,22.11,0,0,1,3.07,1.38c1,.51,1.83,1,2.63,1.54Z"/><path class="cls-3" d="M150.5,114.55v7.92h-25v-39h24.5v7.92h-16.3v7.59h14v7.31h-14v8.31Z"/><path class="cls-4" d="M180.45,114.55v7.92H155.5v-39H180v7.92H163.7v7.59h14v7.31h-14v8.31Z"/><path class="cls-5" d="M197.1,122.47v-39h13.25a18,18,0,0,1,7.7,1.54,15.79,15.79,0,0,1,5.52,4.18,17.76,17.76,0,0,1,3.35,6.18,24.93,24.93,0,0,1,1.13,7.57,24.5,24.5,0,0,1-1.25,8,17.54,17.54,0,0,1-3.58,6.16,15.77,15.77,0,0,1-5.6,4,18.16,18.16,0,0,1-7.27,1.41Zm22.6-19.58a16.47,16.47,0,0,0-.63-4.71,10.69,10.69,0,0,0-1.82-3.65,8,8,0,0,0-2.95-2.37,9.18,9.18,0,0,0-4-.82h-5v23.21h5a8.88,8.88,0,0,0,4-.88,8.25,8.25,0,0,0,2.92-2.45,11.34,11.34,0,0,0,1.8-3.69A16.22,16.22,0,0,0,219.7,102.89Z"/><path class="cls-6" d="M257.85,114.55v7.92h-25v-39h24.5v7.92H241.1v7.59h14v7.31h-14v8.31Z"/><path class="cls-7" d="M289.9,91.34H279.1v31.13h-8.2V91.34H260.05V83.42H289.9Z"/><path class="cls-8" d="M300.05,83.42h7.4l12.95,39.05H312l-2.75-8.75H298.2l-2.7,8.75h-8.4Zm7.85,24.09L303.75,93.7l-4.25,13.81Z"/><path class="cls-9" d="M323.9,122.47v-39h8.2v39.05Z"/><path class="cls-10" d="M338.9,122.47v-39h8.2v31.13h17.2v7.92Z"/><path class="cls-11" d="M389.45,94.86A4.77,4.77,0,0,0,388.4,94a19.74,19.74,0,0,0-2.25-1.26,20.83,20.83,0,0,0-2.95-1.16,10.82,10.82,0,0,0-3.2-.49c-2.94,0-4.4,1.08-4.4,3.24a2.73,2.73,0,0,0,.47,1.65,4.29,4.29,0,0,0,1.4,1.18,12.5,12.5,0,0,0,2.33,1l3.25,1a40.44,40.44,0,0,1,4.6,1.67,12.32,12.32,0,0,1,3.47,2.26,9.21,9.21,0,0,1,2.2,3.27,12.27,12.27,0,0,1,.78,4.62,12.53,12.53,0,0,1-1.13,5.58,10.27,10.27,0,0,1-3,3.69,12.13,12.13,0,0,1-4.25,2,19.42,19.42,0,0,1-4.95.64,25.09,25.09,0,0,1-4-.33,26.82,26.82,0,0,1-4-1A29.48,29.48,0,0,1,369,120.1a20.5,20.5,0,0,1-3.37-2l3.6-7.87a7.12,7.12,0,0,0,1.3,1,19.81,19.81,0,0,0,2.72,1.54,25.77,25.77,0,0,0,3.63,1.37,14,14,0,0,0,4.05.61c2.9,0,4.35-1,4.35-2.92a2.59,2.59,0,0,0-.65-1.81,6.33,6.33,0,0,0-1.8-1.3,19.22,19.22,0,0,0-2.73-1.07l-3.42-1.1a27.88,27.88,0,0,1-4.25-1.79,11.25,11.25,0,0,1-3-2.22,8.28,8.28,0,0,1-1.75-2.92,11.78,11.78,0,0,1-.57-3.85,13.27,13.27,0,0,1,1.05-5.44,11.62,11.62,0,0,1,2.85-4,12.13,12.13,0,0,1,4.17-2.45,15.2,15.2,0,0,1,5-.82,17.2,17.2,0,0,1,3.65.38,26.51,26.51,0,0,1,3.45,1,22.11,22.11,0,0,1,3.07,1.38c.95.51,1.83,1,2.63,1.54Z"/></g></g></svg>